<svg xmlns="http://www.w3.org/2000/svg" xmlns:xlink="http://www.w3.org/1999/xlink" width="19" height="21"><defs><path d="M0 21.33h16v-16L10.67 0H0v21.33z" id="a"/><path d="M10.67 0L16 5.33l-5.33-.02V0z" id="b"/><path d="M10.68.01l5.31 5.31-.01.01H16v16H0V0h10.67v.02l.01-.01zM1.33 20h13.34V6.67H9.33V1.33h-8V20zM14.11 5.33l-3.44-3.45v3.45h3.44z" id="c"/><path d="M18.5 2.75c-4.11 3.3-6 11-9 11h-3c-.2.33-1.2 2-3 5h-1c4.82-10.67 10.16-16 16-16z" id="d"/></defs><use xlink:href="#a" fill="#efefef"/><use xlink:href="#a" fill-opacity="0" stroke="#000" stroke-opacity="0"/><use xlink:href="#b" fill="#fff"/><use xlink:href="#b" fill-opacity="0" stroke="#000" stroke-opacity="0"/><g><use xlink:href="#c" fill="#999"/><use xlink:href="#c" fill-opacity="0" stroke="#000" stroke-opacity="0"/></g><g><use xlink:href="#d"/><use xlink:href="#d" fill-opacity="0" stroke="#000" stroke-opacity="0"/></g></svg>